<svg xmlns="http://www.w3.org/2000/svg" viewBox="0 0 40.79 40.79"><defs><style>.cls-1{fill:#00bcbc;}.cls-2,.cls-3{fill:none;}.cls-2{stroke:#fff;stroke-linecap:round;stroke-linejoin:round;stroke-width:1.5px;}</style></defs><g id="Camada_2" data-name="Camada 2"><g id="Layer_1" data-name="Layer 1"><path class="cls-1" d="M36.41,20V33.58a2.55,2.55,0,0,1-2.55,2.55H28.7a2.55,2.55,0,0,1-2.55-2.55V28.63a3.76,3.76,0,0,0-3.76-3.76h0a3.77,3.77,0,0,0-3.76,3.76v4.95a2.55,2.55,0,0,1-2.55,2.55H10.92a2.55,2.55,0,0,1-2.55-2.55V20a2.54,2.54,0,0,1,1-2L20.84,9.18a2.55,2.55,0,0,1,3.1,0L35.41,18A2.54,2.54,0,0,1,36.41,20Z"/><path class="cls-2" d="M34.41,18V31.58a2.55,2.55,0,0,1-2.55,2.55H26.7a2.55,2.55,0,0,1-2.55-2.55V26.63a3.76,3.76,0,0,0-3.76-3.76h0a3.77,3.77,0,0,0-3.76,3.76v4.95a2.55,2.55,0,0,1-2.55,2.55H8.92a2.55,2.55,0,0,1-2.55-2.55V18a2.54,2.54,0,0,1,1-2L18.84,7.18a2.55,2.55,0,0,1,3.1,0L33.41,16A2.54,2.54,0,0,1,34.41,18Z"/><rect class="cls-3" width="40.79" height="40.79"/></g></g></svg>