<svg xmlns="http://www.w3.org/2000/svg" viewBox="0 0 40.79 40.79"><defs><style>.cls-1,.cls-2{fill:none;}.cls-1{stroke:#fff;stroke-linecap:round;stroke-linejoin:round;stroke-width:1.5px;}</style></defs><g id="Camada_2" data-name="Camada 2"><g id="Layer_1" data-name="Layer 1"><circle class="cls-1" cx="20.39" cy="20.39" r="4.13"/><path class="cls-1" d="M33.06,22.31l0,0a2,2,0,0,1,.75,2.8l-2.62,4.53a2,2,0,0,1-2.8.75h0a2,2,0,0,0-2,0l-.29.17a2,2,0,0,0-1,1.77h0a2,2,0,0,1-2,2H17.76a2,2,0,0,1-2.05-2h0a2,2,0,0,0-1-1.76l-.28-.17a2,2,0,0,0-2.05,0h0a2,2,0,0,1-2.8-.75L6.94,25.13a2,2,0,0,1,.74-2.8l0,0a2,2,0,0,0,1-1.78v-.28a2.07,2.07,0,0,0-1-1.78l0,0a2,2,0,0,1-.74-2.8l2.62-4.54a2.06,2.06,0,0,1,2.8-.75h0a2,2,0,0,0,2.05,0l.28-.16a2,2,0,0,0,1-1.76h0a2.05,2.05,0,0,1,2.05-2H23a2.05,2.05,0,0,1,2,2.05h0a2,2,0,0,0,1,1.77l.29.16a2,2,0,0,0,2,0h0a2.06,2.06,0,0,1,2.8.75l2.62,4.54a2,2,0,0,1-.75,2.8l0,0a2,2,0,0,0-1,1.79v.27A2,2,0,0,0,33.06,22.31Z"/><rect class="cls-2" width="40.79" height="40.79"/></g></g></svg>